<?xml version="1.0" standalone="no"?>
<!DOCTYPE svg PUBLIC "-//W3C//DTD SVG 20010904//EN"
 "http://www.w3.org/TR/2001/REC-SVG-20010904/DTD/svg10.dtd">
<svg version="1.0" xmlns="http://www.w3.org/2000/svg"
 width="900.000000pt" height="900.000000pt" viewBox="0 0 900.000000 900.000000"
 preserveAspectRatio="xMidYMid meet">
<metadata>
Created by potrace 1.15, written by Peter Selinger 2001-2017
</metadata>
<g transform="translate(0.000000,900.000000) scale(0.100000,-0.100000)"
fill="#000000" stroke="none">
<path d="M6460 7510 l0 -1030 1030 0 1030 0 0 1030 0 1030 -1030 0 -1030 0 0
-1030z m1714 56 c32 -16 69 -44 87 -67 37 -47 37 -46 -53 -103 -56 -35 -57
-36 -68 -16 -26 49 -113 75 -163 48 -33 -17 -46 -39 -47 -79 0 -50 31 -75 182
-148 144 -69 197 -113 222 -188 48 -140 -9 -276 -138 -335 -44 -20 -67 -23
-161 -23 -136 1 -201 23 -274 94 -82 80 -82 83 -3 128 37 21 70 39 74 41 4 2
22 -13 40 -34 40 -46 99 -73 156 -74 113 0 178 82 120 155 -13 17 -71 51 -154
90 -148 71 -202 116 -228 192 -32 94 -12 208 47 271 76 82 245 105 361 48z
m-606 -358 c-3 -372 -4 -384 -25 -424 -60 -113 -212 -163 -360 -119 -55 16
-134 79 -158 125 l-14 28 70 42 70 42 43 -46 c39 -42 46 -46 90 -46 39 0 53 5
77 29 l29 29 0 361 0 361 90 0 91 0 -3 -382z"/>
<path d="M1787 8423 c97 -143 175 -343 203 -515 21 -128 -2 -387 -39 -447 -7
-10 -33 4 -117 60 -265 177 -540 400 -821 666 -79 74 -143 130 -143 124 0 -30
386 -529 526 -680 80 -86 73 -83 -96 35 -220 153 -454 336 -613 477 -43 38
-81 67 -84 63 -12 -11 204 -286 421 -536 129 -149 386 -403 509 -504 53 -44
97 -83 97 -87 0 -9 -79 -46 -150 -71 -77 -26 -209 -48 -294 -48 -227 0 -525
97 -723 236 -35 24 -63 38 -63 31 0 -25 132 -187 233 -283 209 -202 464 -338
735 -391 59 -11 133 -16 227 -16 165 1 283 27 418 92 172 82 299 97 402 47 51
-26 135 -110 135 -137 0 -16 38 -10 44 7 12 31 6 169 -10 233 -20 81 -82 217
-129 282 l-35 49 14 62 c45 204 18 425 -81 655 -68 159 -227 375 -364 494 -80
71 -217 169 -234 169 -8 0 6 -29 32 -67z"/>
<path d="M3950 8469 c-36 -14 -79 -58 -103 -104 -47 -91 -58 -224 -32 -397 9
-55 14 -102 13 -103 -2 -1 -42 -18 -90 -38 -311 -126 -433 -289 -338 -453 53
-93 167 -174 344 -243 87 -34 92 -38 86 -61 -4 -14 -13 -75 -20 -137 -23 -192
16 -348 103 -418 37 -29 43 -30 135 -30 88 0 103 3 165 32 78 37 200 119 242
163 16 16 32 30 37 30 5 0 34 -21 66 -47 149 -121 279 -182 389 -183 75 0 108
11 151 53 84 81 112 255 77 471 -8 49 -14 91 -12 92 1 1 41 17 89 37 243 98
368 215 368 346 0 73 -30 131 -103 197 -62 56 -216 140 -310 170 -52 16 -54
18 -47 44 4 15 14 75 21 134 22 184 -12 339 -92 411 -47 43 -68 48 -166 43
-111 -5 -213 -56 -381 -189 l-53 -42 -32 30 c-76 71 -197 147 -290 182 -62 23
-172 28 -217 10z m218 -140 c35 -16 92 -48 125 -73 67 -47 127 -106 110 -106
-5 0 -47 -46 -93 -103 l-83 -103 -116 -18 c-64 -10 -126 -22 -138 -27 -24 -9
-20 -17 -44 109 -18 94 -7 230 22 289 40 81 92 89 217 32z m840 16 c57 -48 76
-198 47 -365 -8 -47 -15 -86 -15 -88 0 -2 -5 0 -11 3 -6 4 -68 17 -139 29
l-128 21 -68 84 c-38 46 -79 96 -91 110 l-21 27 61 50 c88 71 159 114 225 135
77 24 105 23 140 -6z m-387 -511 l75 -7 46 -71 c74 -114 148 -250 148 -272 0
-22 -69 -155 -143 -275 l-47 -76 -102 -6 c-57 -3 -149 -3 -205 0 l-101 6 -49
76 c-60 95 -143 251 -143 268 0 21 67 148 133 255 l61 97 50 4 c97 7 203 7
277 1z m687 -163 c50 -25 105 -63 138 -95 48 -47 54 -56 54 -94 0 -34 -7 -49
-36 -82 -48 -53 -148 -114 -252 -155 -77 -30 -87 -32 -90 -17 -5 23 -56 168
-76 214 -16 36 -15 39 29 157 25 66 45 127 45 135 0 13 8 12 53 -3 28 -10 89
-37 135 -60z m-1423 7 c11 -35 32 -94 48 -132 l28 -68 -27 -67 c-15 -36 -37
-96 -48 -133 l-22 -66 -86 33 c-104 40 -204 102 -252 155 -29 33 -36 48 -36
82 0 38 6 47 54 94 51 49 165 116 256 150 60 22 65 19 85 -48z m1171 -690 c37
-205 0 -375 -85 -392 -38 -8 -121 17 -193 58 -73 41 -177 120 -185 142 -3 8
16 37 48 71 29 32 67 78 85 103 l33 46 108 17 c59 10 122 21 138 26 17 4 32 7
34 5 2 -2 10 -36 17 -76z m-938 47 l112 -19 47 -60 c25 -34 67 -83 92 -109
l46 -48 -40 -34 c-113 -97 -263 -175 -336 -175 -89 0 -137 156 -110 351 17
119 18 122 49 117 15 -3 78 -13 140 -23z"/>
<path d="M4449 7691 c-54 -11 -108 -49 -140 -99 -25 -40 -28 -52 -26 -117 3
-89 32 -140 103 -181 91 -53 220 -29 280 53 119 161 -20 381 -217 344z"/>
<path d="M4667 5743 c12 -47 7 -136 -10 -186 -36 -103 -95 -169 -288 -324
-197 -159 -243 -219 -243 -318 0 -48 6 -73 32 -121 17 -34 37 -68 44 -75 7 -8
35 -40 61 -71 55 -64 175 -173 183 -165 8 8 -22 62 -81 147 -72 103 -96 153
-102 216 -5 47 -2 63 25 117 32 64 58 92 225 240 86 76 150 155 193 237 26 49
29 65 29 150 0 82 -3 101 -24 138 -29 49 -56 58 -44 15z"/>
<path d="M988 5396 c-247 -139 -457 -261 -469 -272 -50 -45 -49 -37 -49 -614
0 -581 -1 -569 52 -616 26 -24 213 -129 303 -171 53 -25 72 -28 155 -28 79 0
102 4 137 22 51 28 100 86 113 134 6 23 9 240 8 560 l-3 524 -80 0 -80 0 -5
-508 -5 -509 -34 -30 c-54 -48 -98 -38 -265 56 l-136 78 2 490 3 490 430 244
c237 134 435 243 440 243 6 0 204 -109 440 -243 l430 -243 0 -494 0 -493 -65
-36 c-36 -21 -230 -130 -432 -243 -201 -114 -369 -207 -373 -207 -3 0 -58 30
-122 67 -111 63 -117 66 -147 54 -17 -7 -55 -22 -83 -33 -34 -13 -53 -27 -53
-37 0 -10 61 -51 169 -113 167 -97 169 -98 236 -98 l67 0 216 122 c120 66 249
139 287 161 39 22 142 80 230 130 88 49 171 99 183 111 53 48 52 35 52 616 0
581 1 569 -52 616 -12 11 -224 134 -469 272 l-445 252 -70 0 -69 0 -447 -254z"/>
<path d="M6580 5472 c0 -45 46 -576 148 -1725 5 -54 12 -100 15 -104 14 -13
735 -213 770 -213 30 0 763 202 772 212 1 2 26 269 54 593 29 325 63 713 76
863 14 150 25 304 25 342 l0 70 -930 0 -930 0 0 -38z m1420 -434 c0 -73 -63
-1024 -68 -1029 -4 -4 -99 -37 -211 -74 l-204 -68 -213 69 -213 69 -5 50 c-3
27 -8 94 -11 148 l-5 97 105 0 105 0 0 -69 0 -69 117 -40 116 -40 104 35 c57
19 110 42 118 50 9 9 15 34 15 66 0 29 3 82 7 120 l6 67 -240 0 -240 0 -7 53
c-3 28 -6 76 -6 105 l0 52 249 0 250 0 5 43 c3 23 8 75 11 115 l6 72 -379 0
-379 0 -6 68 c-4 37 -7 82 -7 100 l0 32 490 0 490 0 0 -22z"/>
<path d="M4835 5257 c-185 -72 -303 -154 -366 -256 -29 -47 -33 -63 -33 -120
0 -72 31 -149 86 -213 73 -85 76 -157 9 -230 -51 -57 -1 -44 78 20 67 55 101
115 101 181 0 49 -5 62 -59 145 -32 50 -62 106 -66 124 -16 77 74 178 272 305
158 101 153 111 -22 44z"/>
<path d="M1625 4959 c-92 -14 -149 -37 -198 -80 -68 -59 -90 -112 -86 -208 3
-66 8 -83 32 -114 57 -75 138 -104 358 -131 137 -17 263 -48 275 -67 3 -6 6
-29 6 -51 -1 -82 -76 -118 -247 -118 -172 0 -257 41 -271 129 -8 51 -25 61
-102 61 -76 0 -87 -11 -79 -87 11 -108 90 -194 215 -234 84 -27 287 -37 388
-20 127 22 229 86 265 166 23 49 25 171 5 218 -20 50 -91 105 -162 127 -34 10
-124 28 -201 40 -277 41 -293 47 -293 110 0 74 58 103 210 103 112 0 175 -17
212 -59 21 -24 51 -94 41 -94 -5 0 -1 -5 7 -10 19 -12 140 -13 159 -1 37 24
-22 187 -87 241 -87 71 -273 104 -447 79z"/>
<path d="M5047 4506 c-45 -12 -87 -40 -76 -50 2 -2 25 0 50 6 41 10 52 8 92
-11 48 -23 77 -67 77 -117 0 -73 -74 -160 -202 -236 -97 -57 -91 -75 13 -39
128 44 251 127 284 192 9 16 15 55 15 91 0 57 -3 67 -32 100 -54 61 -139 86
-221 64z"/>
<path d="M4010 4474 c-90 -19 -207 -65 -236 -91 -30 -28 -23 -47 26 -67 83
-33 171 -41 455 -40 245 0 297 3 415 23 103 17 152 31 207 58 40 20 70 40 67
45 -3 5 -12 7 -19 4 -7 -2 -78 -14 -157 -25 -326 -46 -828 -44 -828 4 0 10 79
43 157 66 46 13 83 27 83 32 0 11 -98 6 -170 -9z"/>
<path d="M4025 4206 c-180 -84 -55 -171 265 -183 172 -7 391 18 548 63 24 7
30 24 9 24 -8 0 -33 14 -56 30 -23 17 -46 28 -51 25 -11 -7 -201 -31 -310 -40
-47 -4 -143 -1 -214 5 -163 14 -192 28 -146 67 20 18 26 33 13 33 -5 0 -30
-11 -58 -24z"/>
<path d="M4073 3950 c-84 -37 -79 -95 10 -135 111 -51 317 -68 483 -40 92 15
254 62 254 74 0 3 -33 21 -73 39 l-73 33 -100 -17 c-129 -21 -369 -15 -429 10
-34 15 -38 19 -22 27 20 12 23 29 5 29 -7 0 -32 -9 -55 -20z"/>
<path d="M3778 3784 c-65 -15 -152 -56 -185 -87 -37 -34 -30 -65 20 -87 55
-25 307 -57 538 -70 450 -24 945 51 1043 159 22 24 17 44 -19 67 -29 19 -44
12 -25 -11 11 -13 10 -19 -5 -35 -25 -27 -92 -46 -260 -72 -126 -20 -178 -22
-520 -23 -328 0 -392 2 -469 18 -48 10 -106 25 -129 34 l-40 16 22 19 c27 21
141 58 182 58 31 0 39 14 13 24 -26 10 -105 5 -166 -10z"/>
<path d="M5280 3645 c-40 -48 -253 -111 -481 -142 -162 -22 -690 -25 -822 -4
-81 12 -110 11 -94 -5 3 -4 36 -15 72 -25 120 -33 248 -41 567 -37 340 5 485
24 629 79 86 33 149 86 149 124 0 29 -3 30 -20 10z"/>
<path d="M4220 2614 c-256 -42 -407 -106 -426 -179 -25 -100 133 -180 443
-225 39 -5 153 -10 253 -10 351 0 632 70 689 171 9 17 12 37 7 63 -6 31 -16
42 -59 69 -87 54 -167 79 -350 107 -153 24 -423 26 -557 4z"/>
<path d="M1246 2539 c-120 -20 -218 -67 -263 -126 -28 -36 -28 -39 -31 -195
l-3 -158 260 0 261 0 0 -30 0 -29 -407 -3 -408 -3 -51 -27 c-91 -48 -160 -146
-189 -270 -10 -42 -15 -117 -15 -224 0 -241 37 -362 140 -458 61 -57 123 -76
251 -76 l97 0 5 167 c2 93 10 185 16 205 21 66 72 130 126 158 49 25 50 25
390 31 190 3 353 10 370 16 62 21 114 54 144 90 56 67 61 105 61 422 0 325 -2
335 -80 405 -95 85 -220 117 -462 115 -90 -1 -185 -5 -212 -10z m-32 -173 c67
-28 66 -127 -3 -155 -67 -28 -139 42 -111 109 11 27 50 58 73 60 4 0 23 -6 41
-14z"/>
<path d="M3610 1534 c0 -862 0 -867 21 -900 57 -94 264 -183 508 -220 117 -17
587 -19 693 -3 176 28 377 95 435 145 15 13 31 24 35 24 5 0 21 19 38 42 l30
41 -1 866 c-1 862 -1 866 -20 824 -48 -105 -212 -185 -494 -240 -73 -14 -143
-17 -365 -17 -280 0 -355 8 -525 55 -199 55 -335 147 -335 227 0 12 -4 22 -10
22 -7 0 -10 -295 -10 -866z m548 80 c19 -6 22 -13 22 -55 l0 -48 -35 15 c-74
31 -165 7 -165 -44 0 -39 13 -53 97 -100 105 -58 126 -85 125 -158 -1 -71 -32
-115 -99 -138 -54 -18 -156 -21 -202 -5 -29 10 -31 14 -31 64 l0 52 43 -21
c82 -41 177 -19 177 41 0 30 -24 53 -98 93 -105 56 -141 115 -121 197 12 46
56 91 101 105 30 8 157 9 186 2z m497 -13 c69 -32 105 -76 130 -157 24 -80 19
-152 -18 -234 -15 -34 -77 -100 -104 -111 -13 -5 -23 -13 -23 -18 0 -5 32 -39
72 -75 l72 -66 -71 0 -70 0 -59 65 c-42 47 -66 65 -84 65 -32 1 -108 35 -139
63 -88 82 -111 240 -51 357 23 46 93 107 135 119 55 17 167 12 210 -8z m355
-211 l0 -220 105 0 105 0 0 -45 0 -45 -157 0 -158 0 3 265 3 265 49 0 50 0 0
-220z"/>
<path d="M4489 1522 c-34 -15 -68 -50 -83 -86 -34 -81 -11 -200 48 -247 42
-34 136 -31 173 6 44 44 53 68 53 151 0 74 -2 84 -30 123 -17 23 -42 46 -56
51 -29 11 -81 12 -105 2z"/>
<path d="M7265 2094 c-192 -21 -412 -74 -555 -134 -189 -80 -346 -206 -405
-325 -27 -54 -30 -70 -30 -155 0 -85 3 -101 29 -155 38 -78 148 -185 252 -247
144 -86 330 -151 544 -190 145 -26 488 -36 641 -19 401 46 728 185 881 376 62
77 88 146 88 235 0 89 -26 158 -87 235 -132 162 -389 288 -721 351 -118 23
-168 27 -367 29 -126 2 -248 1 -270 -1z m210 -176 c-36 -159 -44 -144 88 -150
139 -7 181 -22 203 -75 15 -35 14 -46 -16 -207 -18 -94 -35 -177 -37 -183 -4
-9 -27 -13 -69 -13 -35 0 -64 2 -64 3 0 2 14 71 30 152 35 172 36 182 13 207
-13 15 -32 18 -104 18 -48 0 -90 -3 -92 -7 -3 -5 -20 -90 -38 -190 l-34 -183
-66 0 -65 0 63 323 c34 177 63 323 63 325 0 1 29 2 65 2 63 0 65 -1 60 -22z
m-334 -174 c66 -31 94 -80 93 -164 -1 -84 -32 -156 -91 -211 -66 -61 -100 -72
-239 -77 l-122 -4 -17 -89 -17 -89 -65 0 c-62 0 -65 1 -61 23 3 12 31 161 64
330 l59 309 175 -4 c152 -3 181 -6 221 -24z m1080 16 c58 -11 91 -31 123 -74
31 -40 30 -174 -1 -232 -35 -66 -70 -101 -130 -130 -49 -24 -71 -28 -172 -32
-64 -3 -119 -9 -123 -15 -3 -6 -12 -45 -19 -89 l-13 -78 -66 0 -67 0 13 68 c7
37 32 162 54 277 22 116 45 234 51 263 l10 52 143 0 c79 0 168 -5 197 -10z"/>
<path d="M6855 1658 c-2 -7 -13 -65 -25 -128 -12 -63 -24 -124 -27 -134 -5
-18 0 -19 84 -14 132 8 179 40 203 138 17 70 7 116 -30 135 -37 19 -199 21
-205 3z"/>
<path d="M7966 1532 c-14 -76 -26 -141 -26 -145 0 -13 126 -7 178 8 72 22 105
71 110 165 4 63 3 68 -23 88 -24 19 -41 22 -120 22 l-93 0 -26 -138z"/>
<path d="M2060 1893 c0 -156 -14 -244 -48 -306 -29 -55 -84 -100 -141 -118
-22 -8 -166 -14 -381 -18 l-345 -6 -55 -30 c-60 -33 -114 -96 -130 -153 -6
-22 -10 -160 -10 -333 0 -290 0 -297 23 -340 32 -61 106 -114 202 -146 72 -24
98 -27 270 -31 147 -3 211 0 275 12 104 19 202 67 244 119 l31 39 3 159 3 159
-260 0 -261 0 0 30 0 30 393 0 c443 0 451 1 532 72 54 48 91 107 116 189 16
51 19 93 19 262 0 141 -4 218 -14 254 -32 119 -94 206 -178 249 -42 21 -60 24
-168 24 l-120 0 0 -117z m-256 -1147 c92 -38 44 -182 -54 -161 -79 17 -90 128
-16 161 38 16 31 16 70 0z"/>
</g>
</svg>
